HIERARCHY
ROOT hip
{
	OFFSET 0.000000 0.000000 0.000000 
	CHANNELS 6 Xposition Yposition Zposition Xrotation Zrotation Yrotation
	JOINT abdomen
	{
		OFFSET 0.000000 3.402643 0.000000 
		CHANNELS 3 Xrotation Zrotation Yrotation
		JOINT chest
		{
			OFFSET 0.000000 8.438565 -0.680529 
			CHANNELS 3 Xrotation Zrotation Yrotation
			JOINT neck
			{
				OFFSET 0.000000 10.207942 -0.272212 
				CHANNELS 3 Xrotation Zrotation Yrotation
				JOINT head
				{
					OFFSET 0.000000 3.130431 0.000000 
					CHANNELS 3 Xrotation Zrotation Yrotation
					End Site
					{
						OFFSET 0.000000 3.130435 0.000000 
					}
				}
			}
			JOINT lCollar
			{
				OFFSET 3.470700 6.669187 -0.816635 
				CHANNELS 3 Yrotation Zrotation Xrotation
				JOINT lShldr
				{
					OFFSET 3.198488 0.000000 0.000000 
					CHANNELS 3 Zrotation Yrotation Xrotation
					JOINT lForeArm
					{
						OFFSET 10.139888 0.000000 0.000000 
						CHANNELS 3 Yrotation Zrotation Xrotation
						JOINT lHand
						{
							OFFSET 8.370511 0.000000 0.000000 
							CHANNELS 3 Zrotation Yrotation Xrotation
							End Site
							{
								OFFSET 4.083176 0.000000 0.000000 
							}
						}
					}
				}
			}
			JOINT rCollar
			{
				OFFSET -3.470700 6.669187 -0.816635 
				CHANNELS 3 Yrotation Zrotation Xrotation
				JOINT rShldr
				{
					OFFSET -3.198488 0.000000 0.000000 
					CHANNELS 3 Zrotation Yrotation Xrotation
					JOINT rForeArm
					{
						OFFSET -10.139888 0.000000 0.000000 
						CHANNELS 3 Yrotation Zrotation Xrotation
						JOINT rHand
						{
							OFFSET -8.370511 0.000000 0.000000 
							CHANNELS 3 Zrotation Yrotation Xrotation
							End Site
							{
								OFFSET -4.083176 0.000000 0.000000 
							}
						}
					}
				}
			}
		}
	}
	JOINT lThigh
	{
		OFFSET 5.308129 -1.633274 1.361059 
		CHANNELS 3 Xrotation Zrotation Yrotation
		JOINT lShin
		{
			OFFSET -2.041588 -20.007561 0.000000 
			CHANNELS 3 Xrotation Zrotation Yrotation
			JOINT lFoot
			{
				OFFSET 0.000000 -19.190928 -1.224953 
				CHANNELS 3 Xrotation Yrotation Zrotation
				End Site
				{
					OFFSET 0.000000 -2.449906 4.627600 
				}
			}
		}
	}
	JOINT rThigh
	{
		OFFSET -5.308129 -1.633274 1.361059 
		CHANNELS 3 Xrotation Zrotation Yrotation
		JOINT rShin
		{
			OFFSET 2.041588 -20.007561 0.000000 
			CHANNELS 3 Xrotation Zrotation Yrotation
			JOINT rFoot
			{
				OFFSET 0.000000 -19.190928 -1.224953 
				CHANNELS 3 Xrotation Yrotation Zrotation
				End Site
				{
					OFFSET 0.000000 -2.449906 4.627600 
				}
			}
		}
	}
}
MOTION
Frames: 20
Frame Time: 0.016667
24.359156 49.893990 28.220512 159.550781 137.558594 3.844481 0.000000 0.000000 0.000000 17.880857 17.275389 -58.847652 -2.363281 9.199219 -10.691798 14.228516 19.765623 -19.654902 4.306641 -12.021485 3.193359 -56.787109 -38.388676 41.976360 -80.917969 2.636719 0.819857 67.929688 -27.617188 -11.376955 -5.800781 13.867188 3.457031 30.039063 -5.224609 -0.039950 49.902344 -0.439453 3.818439 -41.689453 19.570314 -5.143211 -20.400150 22.064878 38.215202 8.602544 -3.877225 -1.279476 -8.979373 -2.486684 15.295944 -61.451641 1.416645 -22.305176 62.107506 0.839813 4.116521 -13.719590 3.223571 -18.978376 
23.222012 50.793812 29.236811 155.361343 137.021484 -6.087093 0.000000 0.000000 0.000000 18.339846 21.289064 -58.834343 -2.021484 8.945313 -9.920357 14.960937 19.394531 -18.164063 4.130859 -12.363282 3.359375 -54.248047 -40.205078 40.833538 -75.644531 2.441406 0.790600 66.162109 -28.994143 -11.342624 -4.521484 13.398437 3.300781 29.804686 -3.300781 0.673828 49.023438 -0.439453 3.798828 -41.777344 20.449217 -4.609376 -19.004034 23.676888 38.044655 6.610647 -3.600199 -0.930377 0.045535 -3.440669 13.931929 -63.003407 -0.154788 -21.646936 70.347725 -0.009739 4.745455 -14.287256 2.964238 -19.548477 
22.001863 51.652863 30.266214 -29.101561 43.242191 164.293793 0.000000 0.000000 0.000000 19.687502 25.185549 -57.710686 -1.679688 9.052734 -9.158620 16.074219 19.345703 -16.767578 3.417969 -12.568359 3.400563 -49.951176 -42.812500 38.085938 -70.937500 2.187500 0.624627 64.960938 -29.091797 -11.020372 -3.076172 13.281251 3.318069 29.736328 -1.015625 1.386546 47.792973 -0.449219 3.759842 -40.996098 21.572264 -3.437500 -18.301205 26.104492 36.564335 5.789921 -3.598404 -1.244002 7.796404 -3.980448 11.256175 -64.947708 -3.661423 -20.222551 76.128479 -0.703294 4.870581 -14.739024 2.751142 -18.879183 
20.716204 52.423092 31.302900 -33.740234 42.705078 155.211700 0.000000 0.000000 0.000000 21.972656 28.720707 -55.385933 -1.162109 9.306642 -8.544922 17.207033 19.648439 -15.484997 2.343750 -12.617188 3.515625 -44.013672 -45.527344 33.078968 -67.001953 1.972656 0.693023 64.687500 -28.232422 -11.191406 -1.816406 13.867188 3.571878 29.501953 1.445313 1.562748 46.035152 -0.468750 3.701171 -39.169922 22.783205 -1.308594 -17.959229 29.077847 32.849373 6.034890 -3.551100 -1.239811 14.435687 -3.866075 7.864661 -67.375679 -8.737677 -17.760458 79.135956 -0.703172 4.686068 -14.453739 2.628826 -18.351555 
19.388317 53.052090 32.317738 -38.486328 41.513672 146.344376 0.000000 0.000000 0.000000 25.019529 31.699219 -51.552734 -0.810547 9.384767 -7.958984 18.349609 19.931641 -14.140624 1.083984 -12.685547 3.429879 -37.041016 -47.871094 25.979082 -63.623047 1.835938 0.761719 64.873047 -26.630857 -11.977033 -0.556641 14.111351 3.630426 29.082029 4.423829 1.230469 44.101563 -0.478516 3.632813 -36.259766 23.916016 1.826172 -18.301119 32.394814 28.800766 7.982158 -3.588060 -0.849873 17.870317 -3.832923 4.146528 -70.570076 -14.909468 -15.419188 78.943024 -0.879018 4.719740 -14.057967 2.145820 -16.980400 
18.044411 53.510735 33.287449 -42.734375 39.707031 137.851563 0.000000 0.000000 0.000000 28.671873 34.228516 -46.279301 -0.468750 9.433594 -7.547227 19.111328 20.058596 -13.160712 0.000000 -12.392579 3.369141 -29.570314 -49.873047 17.080078 -60.791019 1.679687 0.693359 65.039063 -24.853518 -12.767776 0.527344 14.179667 3.513238 28.505861 7.392578 0.206335 41.650387 -0.488281 3.554688 -33.134766 24.697266 5.394708 -18.993925 35.861645 25.395887 10.835395 -3.497065 -1.392086 19.362925 -3.410515 2.166988 -74.250343 -21.226446 -12.816914 75.446014 -0.361312 4.590553 -12.686402 1.829361 -15.161473 
16.704878 53.791744 34.203281 -46.933594 37.333984 129.908279 0.000000 0.000000 0.000000 32.529297 35.849609 -40.414204 -0.478516 9.511719 -7.031250 19.296875 20.048828 -12.050782 -0.712891 -12.089844 3.361420 -22.119143 -51.416019 6.621094 -58.837894 1.650391 0.800781 64.697266 -23.115234 -13.226491 1.787109 13.554688 3.405914 27.597658 10.185547 -1.336162 39.013672 -0.498047 3.466797 -30.468750 24.746094 8.968931 -20.048849 39.360889 23.628847 14.866620 -3.327358 -1.826769 19.156805 -3.223614 1.296106 -78.626938 -26.998550 -11.039493 68.767815 0.165924 4.765042 -9.104799 1.682743 -12.577435 
15.387182 53.908226 35.068153 -50.957031 34.306641 122.080086 0.000000 0.000000 0.000000 36.308598 36.806641 -34.193367 -0.488281 9.443359 -6.328125 19.453125 19.697266 -10.820311 -0.898438 -11.923828 3.330078 -15.146484 -52.343746 -4.079996 -57.783203 1.533203 0.624739 63.876953 -21.767578 -13.167686 3.037109 12.382813 3.017578 26.357422 12.451172 -3.417969 36.376953 -0.507813 3.378906 -28.984375 24.160156 11.523438 -20.937370 43.116199 23.670122 19.519915 -3.310762 -1.975294 17.266870 -3.215970 1.797651 -82.769951 -31.814287 -9.927729 58.937519 0.722834 4.377500 -3.329476 1.551276 -9.255819 
14.111712 53.882019 35.884983 -54.326172 30.703127 115.039063 0.000000 0.000000 0.000000 39.238281 37.246094 -28.275341 -0.673828 9.189452 -5.664063 19.619141 19.335938 -9.244813 -0.537109 -11.718768 3.224635 -9.365235 -52.656250 -14.228516 -58.310547 1.601563 0.800777 62.861332 -20.263672 -12.776821 4.277344 10.859376 2.693473 24.462891 13.994141 -5.749590 33.388668 -0.507813 3.281250 -28.710939 23.125002 12.578125 -21.660622 46.431568 25.064838 23.507193 -2.978507 -2.352455 15.706918 -3.314486 2.982693 -86.069908 -35.827229 -9.183419 46.980202 1.611289 3.757015 5.722968 1.939786 -5.483726 
12.916323 53.742237 36.646484 -57.304691 26.787109 109.492188 0.000000 0.000000 0.000000 41.132809 37.490231 -23.408203 -0.507813 9.121094 -4.931641 19.960938 18.964844 -7.789795 0.175781 -11.679688 3.232422 -5.507812 -52.158203 -22.654198 -60.253906 1.728516 0.839844 62.031254 -18.916016 -11.848869 5.498047 8.935546 2.127389 22.236326 14.658204 -8.291017 29.873045 -0.498047 3.173828 -29.472656 21.826172 12.279023 -21.847532 49.424595 27.731346 26.309097 -3.164388 -2.578450 13.985052 -3.572743 4.146013 -88.659058 -39.490070 -7.664866 34.112553 2.606934 2.767837 16.634123 2.578272 -2.112860 
11.843238 53.526752 37.340996 -59.960941 22.841795 104.824219 0.000000 0.000000 0.000000 42.070316 38.105469 -19.320145 -0.517578 8.867188 -4.238281 20.488281 18.417969 -6.494141 1.074219 -11.630859 3.232422 -3.837891 -50.957031 -28.269302 -63.984371 1.875000 0.761399 61.728512 -17.529297 -10.791016 6.533203 6.992188 1.658968 19.511719 14.619141 -10.759254 26.005857 -0.488281 3.046875 -30.791016 20.654295 10.491726 -21.857599 51.918736 30.011032 27.195681 -2.998248 -2.757485 12.134041 -3.440852 5.063202 -90.632469 -43.553108 -4.849177 22.046196 3.299963 1.757729 27.092299 2.939544 0.008774 
10.908477 53.261757 37.971455 -62.363281 18.867188 101.748047 0.000000 0.000000 0.000000 42.041016 39.501949 -15.941051 -0.517578 8.740234 -3.886718 20.634766 17.890627 -5.485281 1.972656 -11.591798 3.234385 -4.384766 -49.404297 -31.110931 -69.150391 2.128906 0.742188 61.796875 -16.289064 -9.687500 7.226563 4.990234 0.956182 16.621094 14.052734 -13.435128 21.611328 -0.458958 2.900627 -32.441402 19.287109 6.995413 -21.875637 53.476124 31.888794 25.945938 -3.164186 -2.533674 9.740546 -3.110341 5.683009 -92.466103 -48.883713 0.415156 12.974001 3.777899 1.020597 34.854450 3.401218 -0.660368 
10.072724 52.957451 38.553860 -64.775391 14.804688 99.152885 0.000000 0.000000 0.000000 41.132813 41.474609 -12.552123 -0.517578 8.417969 -3.710938 20.771486 17.187500 -5.397505 2.509765 -11.914062 3.349610 -6.523438 -47.656250 -31.022842 -75.097656 2.363281 0.605469 61.904301 -15.576173 -8.449888 7.382812 2.812500 0.517578 13.564452 12.617188 -16.250002 17.216799 -0.429688 2.763745 -34.423828 17.714846 2.080078 -21.827503 54.294109 33.202034 22.959835 -2.977780 -2.491234 6.746792 -2.705210 5.406494 -95.056183 -55.184223 8.159937 8.068568 3.822611 0.868209 38.300461 3.708802 -3.735663 
9.269002 52.624023 39.094044 -67.021484 10.458985 96.710762 0.000000 0.000000 0.000000 39.589844 43.369141 -8.632813 -0.517578 8.037110 -3.886719 20.537109 16.513672 -5.993318 2.880859 -12.773333 3.468979 -9.462891 -45.722656 -28.749998 -81.523438 2.656250 0.663610 62.255863 -15.546875 -7.385427 6.845703 0.605469 -0.068359 10.517579 10.673829 -19.627094 13.525390 -0.390625 2.646484 -36.367188 15.605471 -3.173828 -22.016006 54.943531 33.693790 18.636200 -3.309344 -2.265437 4.014667 -2.226412 6.285770 -99.085587 -60.808033 17.681702 7.510270 3.807156 0.466931 40.982094 4.540497 -8.249381 
8.436160 52.273121 39.573071 -69.082031 5.576172 93.682587 0.000000 0.000000 0.000000 37.988277 44.912109 -3.535156 -0.507813 7.617188 -4.404297 20.312500 15.839844 -7.070312 3.251953 -13.955080 3.967198 -12.558593 -43.427734 -24.616089 -87.802734 2.841797 0.947266 62.460938 -15.888673 -6.155018 6.152343 -1.416016 -0.722656 7.294922 8.212891 -23.680246 11.064454 -0.361328 2.568421 -38.447266 13.144531 -8.093481 -22.414715 55.581463 34.107090 14.520204 -3.309865 -1.801137 1.850374 -2.436884 8.269174 -102.949081 -65.028946 25.575747 9.985632 3.804610 0.984455 43.424919 4.863573 -10.425543 
7.564006 51.912025 39.951641 -70.849617 0.341797 89.697266 0.000000 0.000000 0.000000 36.445313 45.498047 2.197264 -0.507813 7.363281 -4.921875 20.117188 15.507812 -8.066407 3.642578 -15.664061 4.511719 -15.322264 -40.439453 -19.049301 -93.808594 3.183594 1.044380 62.539063 -16.757813 -4.924692 5.625000 -2.666016 -0.966343 4.423828 5.253906 -28.465902 10.361329 -0.351563 2.548888 -41.005859 10.097656 -11.601563 -22.423292 56.658966 34.991905 10.844934 -3.484515 -1.216372 0.697410 -3.280461 10.967069 -103.436081 -66.786507 28.005116 14.093494 3.598770 1.423126 44.056374 4.198267 -9.106129 
6.678747 51.536377 40.209347 -71.894531 -5.156250 85.292091 0.000000 0.000000 0.000000 35.019531 45.468746 7.832032 -0.322266 7.304694 -5.242895 20.478516 15.488280 -8.669267 4.238281 -17.714844 5.029297 -17.451172 -36.396484 -12.578126 -99.462891 3.447266 0.985731 62.460938 -17.822266 -3.577206 5.625000 -3.222656 -1.259217 1.708984 2.304688 -33.808205 11.767578 -0.361328 2.587952 -44.091797 7.011719 -13.154297 -22.102533 58.346474 36.466713 8.329733 -3.648174 -1.227888 0.314853 -3.992293 12.960839 -100.470345 -67.126175 25.802017 18.286610 3.407269 1.535119 43.864819 3.978524 -5.965940 
5.822609 51.141796 40.350586 -72.597656 -10.449220 80.800781 0.000000 0.000000 0.000000 33.203125 44.833984 11.953125 0.029297 7.480468 -5.195313 21.230471 15.781251 -8.581328 5.029297 -19.736326 5.595703 -19.111326 -31.308594 -5.717965 -104.345703 3.652343 1.093128 62.060547 -19.267578 -2.412109 6.328125 -3.222656 -1.044373 -0.302734 -0.087891 -40.058632 15.810548 -0.410156 2.714917 -47.558598 4.248047 -12.265625 -22.223076 60.206234 36.280045 7.002494 -3.588111 -0.977106 0.700051 -4.153803 14.578030 -93.658638 -66.551033 19.112776 22.222061 3.222053 2.115958 42.132130 3.397721 -2.013987 
5.029081 50.718094 40.397182 -72.519531 -15.234375 76.718758 0.000000 0.000000 0.000000 30.712893 43.837891 13.786062 0.556641 7.714845 -4.775391 22.353518 16.230469 -7.604693 6.406250 -21.357056 6.253614 -20.283201 -25.527342 1.616887 -108.105469 3.769531 1.307952 61.640625 -20.361328 -1.546367 7.382813 -2.519531 -0.907774 -0.927734 -1.416016 -46.543209 22.490234 -0.468750 2.929688 -50.576172 2.402344 -9.784745 -22.404964 61.423012 35.278324 6.779181 -3.658337 -0.944909 0.865901 -4.420690 15.240100 -84.423416 -65.336655 10.953124 25.224060 3.245874 2.335689 41.052979 2.866227 0.149395 
4.309809 50.262363 40.386993 -71.767578 -19.384766 73.307304 0.000000 0.000000 0.000000 28.095703 42.285156 13.623048 0.908203 8.164063 -4.012285 23.525391 17.001955 -6.032301 7.812500 -22.812502 6.790896 -21.816406 -19.941406 8.779296 -109.882813 3.837891 1.425781 61.201172 -21.279297 -1.097294 8.085938 -1.240234 -0.527132 -0.498047 -0.800781 -52.539059 30.927732 -0.507813 3.203125 -52.968750 1.494141 -6.425527 -23.418058 62.197315 32.108330 6.983930 -3.668233 -0.959679 1.690634 -4.955475 15.602690 -75.288841 -63.375698 3.926839 27.565886 2.890342 2.583167 39.805931 2.924561 0.503077 
